<svg id="Capa_1" data-name="Capa 1" xmlns="http://www.w3.org/2000/svg" viewBox="0 0 704 141.15"><defs><style>.cls-1{fill:#e2a02d;}.cls-2{fill:#fff;}</style></defs><title>0trust_logo</title><path class="cls-1" d="M32.56,108.85,69.88,51.49l-34.72,0V39.36l51.06.05V50.2L49,107.67l37.14,0V119.8l-53.59-.06Z"/><path class="cls-1" d="M155.57,39.51v12.4l-30.39,0a8.38,8.38,0,0,0-5.88,1.9q-2.07,1.91-2.08,5.72V73.76h33.46V85.9l-33.47,0V99.69q0,8.06,7.83,8.07l30.5,0v12.6H122.39A24.59,24.59,0,0,1,109.26,117q-5.5-3.38-5.49-13.62l0-46.4q0-9.26,5-13.39a18.37,18.37,0,0,1,12.1-4.13Z"/><path class="cls-1" d="M173.2,39.51l32.68,0q10.24,0,16.22,5.41t6,19.56q0,10.68-3.77,15.57a20.34,20.34,0,0,1-9.87,7L229.87,120H216.25L202.34,89q-6.64,0-15.79-.23l0,31.15h-13.4Zm30.35,38.7q5.23,0,8.12-3t2.9-10.73q0-7.41-2.88-10.13t-8.11-2.73l-17,0,0,26.58Z"/><path class="cls-1" d="M312.21,55.69l-2.28,1.05-.16.26,2.49-1.15Z"/><path class="cls-1" d="M308,59.85l4.67-2.09,0-.26-4.38,2Z"/><path class="cls-1" d="M306.3,62.63l6.68-2.9c0-.12,0-.24,0-.36l-6.33,2.74Z"/><path class="cls-1" d="M304.62,65.34l8.52-3.57c0-.15,0-.31,0-.46l-8.1,3.4Z"/><polygon class="cls-1" points="303.45 67.25 302.99 68 313.16 63.87 313.16 63.31 303.45 67.25"/><polygon class="cls-1" points="302.01 70.35 313.16 65.99 313.16 65.34 302.01 69.7 302.01 70.35"/><polygon class="cls-1" points="302.01 72.31 313.16 68.1 313.16 67.36 302.01 71.57 302.01 72.31"/><polygon class="cls-1" points="302.01 74.27 313.16 70.22 313.16 69.39 302.01 73.45 302.01 74.27"/><polygon class="cls-1" points="302.01 76.24 313.16 72.34 313.16 71.42 302.01 75.33 302.01 76.24"/><polygon class="cls-1" points="302.01 78.21 313.16 74.46 313.16 73.46 302.01 77.2 302.01 78.21"/><polygon class="cls-1" points="302.01 80.18 313.16 76.58 313.16 75.5 302.01 79.09 302.01 80.18"/><polygon class="cls-1" points="302.01 82.15 313.16 78.71 313.16 77.53 302.01 80.97 302.01 82.15"/><polygon class="cls-1" points="302.01 84.12 313.16 80.83 313.16 79.58 302.01 82.86 302.01 84.12"/><polygon class="cls-1" points="302.01 86.1 313.16 82.96 313.16 81.62 302.01 84.75 302.01 86.1"/><polygon class="cls-1" points="302.01 88.08 313.16 85.09 313.16 83.67 302.01 86.65 302.01 88.08"/><polygon class="cls-1" points="302.01 90.06 313.16 87.23 313.16 85.72 302.01 88.55 302.01 90.06"/><polygon class="cls-1" points="302.01 92.04 313.16 89.36 313.16 87.77 302.01 90.45 302.01 92.04"/><path class="cls-1" d="M302,93.38c0,.22,0,.43,0,.65l11.17-2.53V89.82L302,92.35Z"/><path class="cls-1" d="M248.38,104.16l2.37-1.09.17-.27L248.33,104Z"/><path class="cls-1" d="M247.9,102.09l0,.26,4.55-2,.25-.4Z"/><path class="cls-1" d="M254.55,97.11l-6.95,3c0,.12,0,.24,0,.36l6.58-2.85Z"/><path class="cls-1" d="M256.3,94.36l-8.86,3.71c0,.15,0,.31,0,.46L255.89,95Z"/><polygon class="cls-1" points="258.01 91.68 247.42 95.98 247.42 96.53 257.53 92.44 258.01 91.68"/><polygon class="cls-1" points="258.58 89.5 247.42 93.86 247.42 94.51 258.58 90.14 258.58 89.5"/><polygon class="cls-1" points="258.58 87.54 247.42 91.75 247.42 92.48 258.58 88.28 258.58 87.54"/><polygon class="cls-1" points="258.58 85.58 247.42 89.63 247.42 90.46 258.58 86.4 258.58 85.58"/><polygon class="cls-1" points="258.58 83.61 247.42 87.51 247.42 88.42 258.58 84.52 258.58 83.61"/><polygon class="cls-1" points="258.58 81.64 247.42 85.39 247.42 86.39 258.58 82.64 258.58 81.64"/><polygon class="cls-1" points="258.58 79.67 247.42 83.27 247.42 84.35 258.58 80.76 258.58 79.67"/><polygon class="cls-1" points="258.58 77.7 247.42 81.14 247.42 82.31 258.58 78.88 258.58 77.7"/><polygon class="cls-1" points="258.58 75.73 247.42 79.01 247.42 80.27 258.58 76.99 258.58 75.73"/><polygon class="cls-1" points="258.58 73.75 247.42 76.89 247.42 78.23 258.58 75.09 258.58 73.75"/><polygon class="cls-1" points="258.58 71.77 247.42 74.75 247.42 76.18 258.58 73.2 258.58 71.77"/><polygon class="cls-1" points="258.58 69.79 247.42 72.62 247.42 74.13 258.58 71.3 258.58 69.79"/><polygon class="cls-1" points="258.58 67.8 247.42 70.48 247.42 72.08 258.58 69.4 258.58 67.8"/><path class="cls-1" d="M258.58,66.46c0-.22,0-.43,0-.65l-11.17,2.53V70l11.16-2.53Z"/><path class="cls-1" d="M308.14,46.24a27.51,27.51,0,0,0-2.59-2.88c-.38-.36-.8-.74-1.29-1.16a27.21,27.21,0,0,0-3.39-2.44l0,0-1.08-.6h0l-1-.55v0c-.57-.29-1.1-.54-1.62-.76a27.35,27.35,0,0,0-10.71-2.16h-8.24a30.82,30.82,0,0,0-30.79,30.79V68l11.18-2.5a19.66,19.66,0,0,1,19.61-18.71h8.24a16.25,16.25,0,0,1,6.37,1.28l.08,0-40.16,65.16.51.66a27.8,27.8,0,0,0,2.83,3.1q.51.48,1,.93a27.66,27.66,0,0,0,3.34,2.43c.32.2.64.38,1,.56l1.16.64L308.65,46.9Z"/><path class="cls-1" d="M301.92,95.22a19.67,19.67,0,0,1-11.27,16h0c-.47.22-.94.42-1.43.6s-1,.34-1.48.48-1,.27-1.54.37-1.05.18-1.59.25-1.19.11-1.79.12h-8.12l-6.38,10.53.58.13q1.3.25,2.63.38t2.62.12h8.76q1.2,0,2.37-.13,1.36-.13,2.68-.37t2.61-.6q1.28-.35,2.52-.81t2.42-1q1.18-.56,2.3-1.21t2-1.24a30.78,30.78,0,0,0,13.42-25.41V92L302,94.3C302,94.61,301.95,94.91,301.92,95.22Z"/><path class="cls-2" d="M349.29,51.49H326.12V39.35h59.8V51.49H362.85V120H349.29Z"/><path class="cls-2" d="M399.47,39.35h32.79q10.27,0,16.29,5.41t6,19.62q0,10.71-3.77,15.63a20.41,20.41,0,0,1-9.89,7l15.52,33H442.76l-14-31q-6.67,0-15.85-.22V120H399.47ZM430,78.16q5.25,0,8.15-3T441,64.39q0-7.43-2.9-10.17T430,51.49H412.91V78.16Z"/><path class="cls-2" d="M642.93,51.49H619.75V39.35h59.8V51.49H656.48V120H642.93Z"/><path class="cls-2" d="M574.44,108.55q7.32,0,11.1-2.08t3.77-7.54V95.11a8.64,8.64,0,0,0-2.4-6.56q-2.4-2.3-7.11-2.3h-7.54q-11.48,0-17.22-5t-5.74-16.29V60.78q0-11.37,6.34-16.73t18.8-5.36l23.83.06V50.84H576q-6.89,0-10.33,2.24t-3.44,8.25v2.73q0,4.92,2.68,7.11T573,73.35h8.42q10.17,0,15.47,5.52t5.3,14.59v5.14q0,12.57-7,17.33c-4.66,3.17-11.19,4.62-19.94,4.62"/><rect class="cls-2" x="540.34" y="114.38" width="12.04" height="0.32" transform="translate(431.26 660.78) rotate(-89.94)"/><rect class="cls-2" x="542.43" y="114.31" width="12.04" height="0.45" transform="translate(433.34 662.86) rotate(-89.94)"/><rect class="cls-2" x="544.51" y="114.25" width="12.04" height="0.58" transform="matrix(0, -1, 1, 0, 435.42, 664.95)"/><rect class="cls-2" x="546.59" y="114.19" width="12.04" height="0.71" transform="translate(437.5 667.03) rotate(-89.94)"/><rect class="cls-2" x="548.68" y="114.12" width="12.04" height="0.84" transform="translate(439.58 669.12) rotate(-89.94)"/><rect class="cls-2" x="550.76" y="114.06" width="12.04" height="0.97" transform="translate(441.66 671.2) rotate(-89.94)"/><rect class="cls-2" x="552.84" y="114" width="12.04" height="1.1" transform="translate(443.74 673.29) rotate(-89.94)"/><rect class="cls-2" x="554.92" y="113.93" width="12.04" height="1.23" transform="translate(445.81 675.37) rotate(-89.94)"/><rect class="cls-2" x="557.01" y="113.87" width="12.04" height="1.36" transform="translate(447.89 677.46) rotate(-89.94)"/><rect class="cls-2" x="559.09" y="113.81" width="12.04" height="1.49" transform="translate(449.97 679.54) rotate(-89.94)"/><rect class="cls-2" x="561.17" y="113.74" width="12.04" height="1.62" transform="translate(452.05 681.63) rotate(-89.94)"/><rect class="cls-2" x="563.26" y="113.68" width="12.04" height="1.75" transform="translate(454.13 683.72) rotate(-89.94)"/><rect class="cls-2" x="565.34" y="113.62" width="12.04" height="1.88" transform="translate(456.21 685.8) rotate(-89.94)"/><rect class="cls-2" x="567.64" y="113.56" width="12.04" height="2.01" transform="translate(458.5 688.11) rotate(-89.94)"/><polygon class="cls-2" points="575.75 120.55 574.45 120.58 574.46 108.54 576.61 108.55 575.75 120.55"/><polygon class="cls-2" points="580.89 119.09 578.22 118.94 574.07 108.55 580.9 108.52 580.89 119.09"/><path class="cls-2" d="M477.92,114.84Q470,109.1,470,94.34V70.27h13.45V94.34q0,7.65,4.37,10.88t13,3.23q8.63,0,13-3.23t4.37-10.88v-55h13.45v55q0,14.76-7.92,20.5t-22.9,5.74Q485.84,120.58,477.92,114.84Z"/><rect class="cls-2" x="476.62" y="32" width="0.32" height="13.54" transform="translate(437.51 515.51) rotate(-89.94)"/><rect class="cls-2" x="476.56" y="34.09" width="0.45" height="13.54" transform="translate(435.43 517.59) rotate(-89.94)"/><rect class="cls-2" x="476.49" y="36.17" width="0.58" height="13.54" transform="translate(433.34 519.67) rotate(-89.94)"/><rect class="cls-2" x="476.42" y="38.25" width="0.71" height="13.54" transform="translate(431.26 521.75) rotate(-89.94)"/><rect class="cls-2" x="476.35" y="40.34" width="0.84" height="13.54" transform="translate(429.17 523.83) rotate(-89.94)"/><rect class="cls-2" x="476.29" y="42.42" width="0.97" height="13.54" transform="translate(427.09 525.91) rotate(-89.94)"/><rect class="cls-2" x="476.22" y="44.5" width="1.1" height="13.54" transform="translate(425 527.99) rotate(-89.94)"/><rect class="cls-2" x="476.15" y="46.58" width="1.23" height="13.54" transform="translate(422.92 530.06) rotate(-89.94)"/><rect class="cls-2" x="476.08" y="48.67" width="1.36" height="13.54" transform="translate(420.83 532.14) rotate(-89.94)"/><rect class="cls-2" x="476.02" y="50.75" width="1.49" height="13.54" transform="translate(418.75 534.22) rotate(-89.94)"/><rect class="cls-2" x="475.95" y="52.83" width="1.62" height="13.54" transform="translate(416.66 536.3) rotate(-89.94)"/><rect class="cls-2" x="475.88" y="54.92" width="1.75" height="13.54" transform="translate(414.58 538.38) rotate(-89.94)"/><rect class="cls-2" x="474.93" y="58.07" width="3.65" height="13.54" transform="translate(411.42 541.52) rotate(-89.94)"/><rect class="cls-2" x="475.75" y="59.08" width="2.01" height="13.54" transform="translate(410.41 542.54) rotate(-89.94)"/><rect class="cls-2" x="475.68" y="61.16" width="2.15" height="13.54" transform="translate(408.32 544.62) rotate(-89.94)"/><rect class="cls-2" x="475.61" y="63.25" width="2.28" height="13.54" transform="translate(406.24 546.69) rotate(-89.94)"/><rect class="cls-2" x="475.54" y="65.33" width="2.41" height="13.54" transform="translate(404.15 548.77) rotate(-89.94)"/><rect class="cls-2" x="475.48" y="67.41" width="2.54" height="13.54" transform="translate(402.07 550.85) rotate(-89.94)"/></svg>